<mxfile host="app.diagrams.net" modified="2021-06-06T02:47:31.836Z" agent="5.0 (X11)" etag="-kDxp5YGC68HO0A0DFpf" version="14.7.6" type="github">
  <diagram id="R2lEEEUBdFMjLlhIrx00" name="Page-1">
    <mxGraphModel dx="1422" dy="820" grid="1" gridSize="10" guides="1" tooltips="1" connect="1" arrows="1" fold="1" page="1" pageScale="1" pageWidth="850" pageHeight="1100" math="0" shadow="0" extFonts="Permanent Marker^https://fonts.googleapis.com/css?family=Permanent+Marker">
      <root>
        <mxCell id="0" />
        <mxCell id="1" parent="0" />
        <mxCell id="4W3iUB-YqKtE-QNoI75w-1" value="&lt;div&gt;CHUNHA&lt;/div&gt;" style="whiteSpace=wrap;html=1;align=center;" vertex="1" parent="1">
          <mxGeometry x="120" y="80" width="100" height="40" as="geometry" />
        </mxCell>
        <mxCell id="4W3iUB-YqKtE-QNoI75w-3" value="MACHUNHA" style="ellipse;whiteSpace=wrap;html=1;align=center;fontStyle=4;" vertex="1" parent="1">
          <mxGeometry y="20" width="100" height="40" as="geometry" />
        </mxCell>
        <mxCell id="4W3iUB-YqKtE-QNoI75w-5" value="DIACHI" style="ellipse;whiteSpace=wrap;html=1;align=center;" vertex="1" parent="1">
          <mxGeometry y="140" width="100" height="40" as="geometry" />
        </mxCell>
        <mxCell id="4W3iUB-YqKtE-QNoI75w-6" value="TEN" style="ellipse;whiteSpace=wrap;html=1;align=center;" vertex="1" parent="1">
          <mxGeometry y="100" width="100" height="40" as="geometry" />
        </mxCell>
        <mxCell id="4W3iUB-YqKtE-QNoI75w-9" value="&lt;div&gt;DIENTHOAI&lt;/div&gt;" style="ellipse;shape=doubleEllipse;margin=3;whiteSpace=wrap;html=1;align=center;" vertex="1" parent="1">
          <mxGeometry y="60" width="100" height="40" as="geometry" />
        </mxCell>
      </root>
    </mxGraphModel>
  </diagram>
</mxfile>
